<svg xmlns="http://www.w3.org/2000/svg" viewBox="0 0 498 498"><defs><style>.cls-1{fill:#1245a8;}</style></defs><g id="Layer_2" data-name="Layer 2"><g id="Layer_1-2" data-name="Layer 1"><path class="cls-1" d="M405.61,0H92.39A92.42,92.42,0,0,0,0,92.39V405.61A92.37,92.37,0,0,0,92.39,498H405.61A92.37,92.37,0,0,0,498,405.61V92.39A92.42,92.42,0,0,0,405.61,0Zm10.81,302.68H291V427.6h-43.7a40.46,40.46,0,0,1-40.47-40.47V218.51H376A40.46,40.46,0,0,1,416.42,259Zm0-129.53H122a40.46,40.46,0,0,1-40.47-40.47V89H376a40.46,40.46,0,0,1,40.47,40.47Z"/></g></g></svg>