<svg xmlns="http://www.w3.org/2000/svg" viewBox="0 0 793.8 163.63"><defs><style>.cls-1{fill:#1245a8;}</style></defs><g id="Layer_2" data-name="Layer 2"><g id="Layer_1-2" data-name="Layer 1"><path class="cls-1" d="M267.12,33.78H239.21v73.16H218V33.78H190V15.17h77.16Z"/><path class="cls-1" d="M301.12,56.79a39.49,39.49,0,0,0-13.57,2.46,16.51,16.51,0,0,0-8.79,7v40.71H258.08V39.08h19v13.7a28.76,28.76,0,0,1,9-10.72,20.69,20.69,0,0,1,11.7-4h2.06a6.44,6.44,0,0,1,1.3.13Z"/><path class="cls-1" d="M324.64,108.23a26.77,26.77,0,0,1-9.37-1.61,22,22,0,0,1-7.43-4.53,21.56,21.56,0,0,1-4.91-6.85,20.29,20.29,0,0,1-1.81-8.59,19.77,19.77,0,0,1,2.13-9.18,21.05,21.05,0,0,1,6-7.11,29.69,29.69,0,0,1,9.18-4.65A38.76,38.76,0,0,1,330.2,64a47.65,47.65,0,0,1,8.27.71,26.93,26.93,0,0,1,7,2.13v-3.1Q345.45,52,331.88,52a30.14,30.14,0,0,0-10.6,1.87,51.52,51.52,0,0,0-10.6,5.62l-6.07-12.92a54,54,0,0,1,14-6.59A52.46,52.46,0,0,1,334,37.79q15.38,0,23.78,7.24t8.4,21.2V83.67c0,2.07.32,3.52,1,4.33a4.77,4.77,0,0,0,3.42,1.49v17.45a34.63,34.63,0,0,1-4.91.84c-1.47.13-2.8.19-4,.19q-5.81,0-8.78-2.26a10,10,0,0,1-3.75-6.4l-.39-3.1a31,31,0,0,1-10.79,8.92A29.48,29.48,0,0,1,324.64,108.23Zm6.07-14.86a18.7,18.7,0,0,0,6.53-1.17,15.21,15.21,0,0,0,5.24-3.1c2-1.55,3-3.18,3-4.91V77.73a35.25,35.25,0,0,0-11.76-2.2,15.88,15.88,0,0,0-9.37,2.59,7.87,7.87,0,0,0-3.69,6.72A7.66,7.66,0,0,0,323.48,91,10.87,10.87,0,0,0,330.71,93.37Z"/><path class="cls-1" d="M405.81,108.23A30.86,30.86,0,0,1,393,105.58a29.87,29.87,0,0,1-10.15-7.43A35.29,35.29,0,0,1,376.14,87a39.87,39.87,0,0,1-2.39-14A42.56,42.56,0,0,1,376,59.12a33.81,33.81,0,0,1,6.21-11.18,29.39,29.39,0,0,1,9.49-7.43,26.93,26.93,0,0,1,12.09-2.72,25,25,0,0,1,12.86,3.36,23.17,23.17,0,0,1,8.85,9.05V12.59h20.68V83.67c0,2.07.33,3.52,1,4.33a4.82,4.82,0,0,0,3.43,1.49v17.45a39.64,39.64,0,0,1-4.92.84c-1.37.13-2.67.19-3.87.19a15.45,15.45,0,0,1-8.79-2.26,8.76,8.76,0,0,1-3.88-6.53l-.39-3.49a23.07,23.07,0,0,1-9.75,9.44A28.7,28.7,0,0,1,405.81,108.23Zm5.56-17.45a15,15,0,0,0,8.2-2.52,16.18,16.18,0,0,0,6-6.91V67.13a18.67,18.67,0,0,0-6.27-8.47,14.68,14.68,0,0,0-9-3.29,12.82,12.82,0,0,0-6.14,1.49,16.4,16.4,0,0,0-4.85,3.94,17.59,17.59,0,0,0-3.16,5.68,21.24,21.24,0,0,0-1.1,6.85,19.44,19.44,0,0,0,1.23,7,17.11,17.11,0,0,0,3.36,5.56,14.68,14.68,0,0,0,5.17,3.62A16.51,16.51,0,0,0,411.37,90.78Z"/><path class="cls-1" d="M491.11,108.23a40.18,40.18,0,0,1-15.32-2.78,34,34,0,0,1-11.5-7.56,32.22,32.22,0,0,1-7.17-11,35.59,35.59,0,0,1-2.46-13.12,39,39,0,0,1,2.46-13.89,33.66,33.66,0,0,1,7.1-11.44,33.27,33.27,0,0,1,11.44-7.75,39.59,39.59,0,0,1,15.45-2.85,39.1,39.1,0,0,1,15.38,2.85,33.55,33.55,0,0,1,11.37,7.69,32.7,32.7,0,0,1,7,11.17,37.51,37.51,0,0,1,2.39,13.32c0,1.2,0,2.39-.13,3.55a26.53,26.53,0,0,1-.39,3H476.63q.53,6.86,5,10.4a15.82,15.82,0,0,0,10.14,3.56,18.54,18.54,0,0,0,8.73-2.2,11.21,11.21,0,0,0,5.62-6l17.58,4.92a31.63,31.63,0,0,1-12.41,13Q502.87,108.23,491.11,108.23Zm14.34-41.62A15.56,15.56,0,0,0,500.8,56.4a14,14,0,0,0-9.95-3.75,13.84,13.84,0,0,0-10,3.82,15.84,15.84,0,0,0-4.59,10.14Z"/><path class="cls-1" d="M614.28,104.35a9.69,9.69,0,0,1-1.74.71q-1.62.59-4.14,1.23t-5.69,1.16a38.25,38.25,0,0,1-6.27.52,23.61,23.61,0,0,1-7.88-1.23,18.64,18.64,0,0,1-5.95-3.29,14,14,0,0,1-3.74-4.85,13.64,13.64,0,0,1-1.3-5.88v-50a23.82,23.82,0,0,0-1.81-10.14C574.56,30,572,28.74,568,28.74q-5.68,0-8,3.62a18.17,18.17,0,0,0-2.39,9.31v3h10.21V60.28H557.67v46.66H537V60.28h-8.66V44.64H537V37.15a27.9,27.9,0,0,1,2.13-11.31,21.41,21.41,0,0,1,6.08-8.08,26.46,26.46,0,0,1,9.56-4.85,50.09,50.09,0,0,1,26.37.32,25.48,25.48,0,0,1,9.69,5.56,22,22,0,0,1,5.62,8.66,33,33,0,0,1,1.81,11.25V82.12a10.5,10.5,0,0,0,1.36,5,4.78,4.78,0,0,0,4.59,2.52,9.65,9.65,0,0,0,2.39-.32c.82-.22,1.59-.43,2.33-.65a16.59,16.59,0,0,0,1.87-.65,5.17,5.17,0,0,1,.9-.32Z"/><path class="cls-1" d="M650,108.23a39.72,39.72,0,0,1-15.44-2.84,33.65,33.65,0,0,1-11.44-7.69A32.57,32.57,0,0,1,616,86.45a38.62,38.62,0,0,1,0-26.75,32.66,32.66,0,0,1,7.05-11.25,34.36,34.36,0,0,1,11.44-7.75A38.82,38.82,0,0,1,650,37.79a38.39,38.39,0,0,1,15.38,2.91,34.72,34.72,0,0,1,11.38,7.75,33.24,33.24,0,0,1,7.1,11.25,36.92,36.92,0,0,1,2.46,13.38,37.94,37.94,0,0,1-2.39,13.37,32.42,32.42,0,0,1-7,11.25,33.7,33.7,0,0,1-11.43,7.69A39.81,39.81,0,0,1,650,108.23ZM634.83,73.08q0,8,4.26,12.86a14.53,14.53,0,0,0,16.81,3.55,14.17,14.17,0,0,0,4.71-3.62,17.15,17.15,0,0,0,3.17-5.62,21.31,21.31,0,0,0,1.16-7.17q0-8-4.26-12.86A13.66,13.66,0,0,0,650,55.37a14,14,0,0,0-10.79,4.91A17.43,17.43,0,0,0,636,65.9,21.58,21.58,0,0,0,634.83,73.08Z"/><path class="cls-1" d="M774.16,39.08H793.8l-28,67.86H748.82L738.35,79l-10.46,27.92H711l-28-67.86h19.51l18.49,48.73,6.33-18.48-12-30.25h16.54l6.59,20.42,6.47-20.42h16.54L749.47,69.33l6.33,18.48Z"/><path class="cls-1" d="M692.16,124.68h6.15l10.77,29.5h-7l-2.29-6.61h-9.18l-2.25,6.61h-7Zm6.53,18.2-3.45-10.43-3.53,10.43Z"/><path class="cls-1" d="M711.24,154.18v-15h-2.79v-5h2.79v-1.78a11.93,11.93,0,0,1,.54-3.7,8.12,8.12,0,0,1,1.54-2.83,6.61,6.61,0,0,1,2.4-1.78,7.63,7.63,0,0,1,3.12-.63,14.59,14.59,0,0,1,5.69,1.29l-1.2,5a7.56,7.56,0,0,0-1.48-.48,6.43,6.43,0,0,0-1.51-.19c-1.64,0-2.45,1-2.45,3.08v2H723v5h-5.07v15Z"/><path class="cls-1" d="M738.54,138.06a12.72,12.72,0,0,0-4.36.79,5.33,5.33,0,0,0-2.83,2.24v13.09H724.7V132.37h6.11v4.4a9.24,9.24,0,0,1,2.89-3.45,6.66,6.66,0,0,1,3.76-1.29h.66a3,3,0,0,1,.42,0Z"/><path class="cls-1" d="M740.2,129.87v-6h6.65v6Zm0,24.31V132.37h6.65v21.81Z"/><path class="cls-1" d="M749,143.25a11.84,11.84,0,0,1,.79-4.3,10.7,10.7,0,0,1,2.28-3.61,10.9,10.9,0,0,1,3.68-2.48,12.92,12.92,0,0,1,5-.91,11.76,11.76,0,0,1,6.35,1.6,10.28,10.28,0,0,1,3.87,4.18l-6.48,2a4.18,4.18,0,0,0-3.79-2.08,4.48,4.48,0,0,0-3.47,1.54,5.93,5.93,0,0,0-1.39,4.11,7,7,0,0,0,.38,2.35,5.27,5.27,0,0,0,1,1.81,4.61,4.61,0,0,0,1.55,1.16,4.54,4.54,0,0,0,4.18-.19,4,4,0,0,0,1.54-1.55l6.48,2a9.81,9.81,0,0,1-3.84,4.16,12,12,0,0,1-6.42,1.62,12.31,12.31,0,0,1-4.93-.94,11.27,11.27,0,0,1-3.7-2.49,10.49,10.49,0,0,1-2.3-3.62A11.8,11.8,0,0,1,749,143.25Z"/><path class="cls-1" d="M779.05,154.6a8.69,8.69,0,0,1-3-.52,7,7,0,0,1-2.39-1.46,6.83,6.83,0,0,1-1.58-2.2,6.5,6.5,0,0,1-.58-2.76,6.41,6.41,0,0,1,.68-2.95,6.73,6.73,0,0,1,1.94-2.29,9.41,9.41,0,0,1,2.95-1.49,12.42,12.42,0,0,1,3.78-.54,15.49,15.49,0,0,1,2.66.22,9.37,9.37,0,0,1,2.24.69v-1q0-3.78-4.36-3.78a9.75,9.75,0,0,0-3.41.6,17,17,0,0,0-3.41,1.81l-1.95-4.15a17.17,17.17,0,0,1,4.49-2.12A17,17,0,0,1,782,132q5,0,7.65,2.33t2.7,6.81v5.61a2.28,2.28,0,0,0,.31,1.39,1.52,1.52,0,0,0,1.1.48v5.61a10.68,10.68,0,0,1-1.58.27c-.47,0-.9.06-1.28.06a4.67,4.67,0,0,1-2.83-.72,3.19,3.19,0,0,1-1.2-2.06l-.13-1a9.92,9.92,0,0,1-3.47,2.87A9.53,9.53,0,0,1,779.05,154.6Zm2-4.78a6,6,0,0,0,2.1-.38,4.76,4.76,0,0,0,1.68-1,2.07,2.07,0,0,0,1-1.58v-2.08a11.32,11.32,0,0,0-1.89-.52,11,11,0,0,0-1.89-.19,5.14,5.14,0,0,0-3,.83,2.56,2.56,0,0,0-1.19,2.17,2.46,2.46,0,0,0,.92,2A3.49,3.49,0,0,0,781,149.82Z"/><path class="cls-1" d="M133.27,0H30.36A30.37,30.37,0,0,0,0,30.36V133.27a30.35,30.35,0,0,0,30.36,30.36H133.27a30.35,30.35,0,0,0,30.36-30.36V30.36A30.37,30.37,0,0,0,133.27,0Zm3.55,99.45H95.63v41H81.27A13.29,13.29,0,0,1,68,127.2V71.8h55.55a13.29,13.29,0,0,1,13.3,13.29Zm0-42.56H40.07a13.3,13.3,0,0,1-13.3-13.3V29.23h96.75a13.29,13.29,0,0,1,13.3,13.3Z"/></g></g></svg>